<svg xmlns="http://www.w3.org/2000/svg" viewBox="0 0 60 60" width="60" height="60">
  <defs>
    <clipPath id="circle_emp008">
      <circle cx="30" cy="30" r="30"/>
    </clipPath>
  </defs>
  <circle cx="30" cy="30" r="30" fill="#6B1C23"/>
  <g clip-path="url(#circle_emp008)">
    <!-- Shoulders/uniform -->
    <ellipse cx="30" cy="58" rx="24" ry="14" fill="#4a1219"/>
    <ellipse cx="30" cy="54" rx="18" ry="10" fill="#3d1018"/>
    <!-- Face -->
    <circle cx="30" cy="26" r="13" fill="#C68642"/>
    <!-- Hair -->
    <!-- Wavy curly longer dark brown hair -->
    <ellipse cx="30" cy="17" rx="15" ry="10" fill="#2C1A0E"/>
    <rect x="15" y="17" width="6" height="24" rx="3" fill="#2C1A0E"/>
    <rect x="39" y="17" width="6" height="24" rx="3" fill="#2C1A0E"/>
    <path d="M16,22 Q19,18 21,22 Q23,18 25,22" fill="none" stroke="#3C2A1E" stroke-width="2"/>
    <path d="M35,22 Q37,18 40,22 Q42,18 44,22" fill="none" stroke="#3C2A1E" stroke-width="2"/>
    <!-- Eyes -->
    <circle cx="26" cy="24" r="1.8" fill="#2C1810"/>
    <circle cx="34" cy="24" r="1.8" fill="#2C1810"/>
    <!-- Nose -->
    <circle cx="30" cy="28" r="1" fill="rgba(0,0,0,0.15)"/>
    <!-- Smile -->
    <path d="M26,31 Q30,35 34,31" fill="none" stroke="#2C1810" stroke-width="1.5" stroke-linecap="round"/>
    
  </g>
</svg>