<svg xmlns="http://www.w3.org/2000/svg" viewBox="0 0 80 80" width="80" height="80">
  <rect width="80" height="80" fill="#FBF5ED" rx="8"/>
  <!-- Cog/gear -->
  <circle cx="40" cy="40" r="16" fill="none" stroke="#6B1C23" stroke-width="5"/>
  <circle cx="40" cy="40" r="6" fill="#6B1C23"/>
  <!-- Gear teeth -->
  <rect x="37" y="18" width="6" height="8" rx="2" fill="#6B1C23"/>
  <rect x="37" y="54" width="6" height="8" rx="2" fill="#6B1C23"/>
  <rect x="18" y="37" width="8" height="6" rx="2" fill="#6B1C23"/>
  <rect x="54" y="37" width="8" height="6" rx="2" fill="#6B1C23"/>
  <rect x="24" y="24" width="6" height="8" rx="2" fill="#6B1C23" transform="rotate(45,27,28)"/>
  <rect x="50" y="24" width="6" height="8" rx="2" fill="#6B1C23" transform="rotate(-45,53,28)"/>
  <rect x="24" y="48" width="6" height="8" rx="2" fill="#6B1C23" transform="rotate(-45,27,52)"/>
  <rect x="50" y="48" width="6" height="8" rx="2" fill="#6B1C23" transform="rotate(45,53,52)"/>
</svg>