<svg xmlns="http://www.w3.org/2000/svg" viewBox="0 0 400 225" width="400" height="225">
  <defs>
    <linearGradient id="bg_tm001" x1="0%" y1="0%" x2="100%" y2="100%">
      <stop offset="0%" style="stop-color:#7a2029;stop-opacity:1" />
      <stop offset="100%" style="stop-color:#3d0e14;stop-opacity:1" />
    </linearGradient>
  </defs>
  <rect width="400" height="225" fill="url(#bg_tm001)"/>
  <polygon points="230,0 400,0 400,225 290,225" fill="rgba(0,0,0,0.18)"/>
  <rect width="400" height="40" fill="rgba(0,0,0,0.35)"/>
  <rect x="0" y="0" width="5" height="225" fill="#C8A951"/>
  <text x="202" y="26" font-family="Georgia, serif" font-size="13" font-weight="bold" fill="#C8A951" text-anchor="middle" letter-spacing="3">COSTA COFFEE®</text>
  <g opacity="0.75">
    <rect x="268" y="58" width="84" height="125" rx="5" fill="rgba(255,255,255,0.08)" stroke="rgba(255,255,255,0.55)" stroke-width="2.5"/>
    <path d="M268,93 Q310,53 352,93" fill="rgba(255,255,255,0.07)" stroke="rgba(255,255,255,0.55)" stroke-width="2.5" stroke-linecap="round"/>
    <rect x="278" y="100" width="30" height="38" rx="2" fill="none" stroke="rgba(255,255,255,0.3)" stroke-width="1.5"/>
    <rect x="312" y="100" width="30" height="38" rx="2" fill="none" stroke="rgba(255,255,255,0.3)" stroke-width="1.5"/>
    <circle cx="342" cy="124" r="5" fill="#C8A951" opacity="0.9"/>
    <line x1="310" y1="55" x2="310" y2="44" stroke="#C8A951" stroke-width="2" opacity="0.8"/>
    <line x1="330" y1="61" x2="336" y2="50" stroke="#C8A951" stroke-width="2" opacity="0.8"/>
    <line x1="290" y1="61" x2="284" y2="50" stroke="#C8A951" stroke-width="2" opacity="0.8"/>
    <circle cx="310" cy="43" r="3" fill="#C8A951" opacity="0.7"/>
    <circle cx="337" cy="49" r="2" fill="#C8A951" opacity="0.7"/>
    <circle cx="283" cy="49" r="2" fill="#C8A951" opacity="0.7"/>
    <line x1="350" y1="75" x2="362" y2="70" stroke="#C8A951" stroke-width="2" opacity="0.7"/>
    <line x1="270" y1="75" x2="258" y2="70" stroke="#C8A951" stroke-width="2" opacity="0.7"/>
    <line x1="355" y1="100" x2="368" y2="100" stroke="#C8A951" stroke-width="2" opacity="0.7"/>
  </g>
  <text x="30" y="100" font-family="Georgia, serif" font-size="24" font-weight="bold" fill="white">Onboarding</text>
  <text x="30" y="128" font-family="Georgia, serif" font-size="24" font-weight="bold" fill="white">Essentials</text>
  <text x="30" y="162" font-family="Arial, sans-serif" font-size="13" font-style="italic" fill="#C8A951">Welcome to Costa Coffee</text>
  <rect x="24" y="178" width="72" height="20" rx="3" fill="rgba(200,169,81,0.2)"/>
  <text x="60" y="192" font-family="Arial, sans-serif" font-size="9" fill="#C8A951" text-anchor="middle" letter-spacing="1">MODULE 001</text>
  <rect y="215" width="400" height="10" fill="#C8A951" opacity="0.6"/>
</svg>