<svg xmlns="http://www.w3.org/2000/svg" viewBox="0 0 400 225" width="400" height="225">
  <defs>
    <linearGradient id="bg_tm008" x1="0%" y1="0%" x2="100%" y2="100%">
      <stop offset="0%" style="stop-color:#7a2029;stop-opacity:1" />
      <stop offset="100%" style="stop-color:#3d0e14;stop-opacity:1" />
    </linearGradient>
  </defs>
  <rect width="400" height="225" fill="url(#bg_tm008)"/>
  <polygon points="230,0 400,0 400,225 290,225" fill="rgba(0,0,0,0.18)"/>
  <rect width="400" height="40" fill="rgba(0,0,0,0.35)"/>
  <rect x="0" y="0" width="5" height="225" fill="#C8A951"/>
  <text x="202" y="26" font-family="Georgia, serif" font-size="13" font-weight="bold" fill="#C8A951" text-anchor="middle" letter-spacing="3">COSTA COFFEE®</text>
  <g opacity="0.75">
    <circle cx="310" cy="145" r="42" fill="rgba(255,255,255,0.08)" stroke="rgba(255,255,255,0.5)" stroke-width="2.5"/>
    <circle cx="310" cy="145" r="32" fill="rgba(255,255,255,0.1)" stroke="rgba(255,255,255,0.35)" stroke-width="1.5"/>
    <line x1="310" y1="145" x2="310" y2="122" stroke="rgba(255,255,255,0.8)" stroke-width="3" stroke-linecap="round"/>
    <line x1="310" y1="145" x2="326" y2="155" stroke="rgba(255,255,255,0.8)" stroke-width="2.5" stroke-linecap="round"/>
    <circle cx="310" cy="145" r="4" fill="rgba(255,255,255,0.9)"/>
    <line x1="310" y1="100" x2="310" y2="88" stroke="#C8A951" stroke-width="3" stroke-linecap="round" opacity="0.9"/>
    <line x1="338" y1="108" x2="346" y2="99" stroke="#C8A951" stroke-width="3" stroke-linecap="round" opacity="0.9"/>
    <line x1="282" y1="108" x2="274" y2="99" stroke="#C8A951" stroke-width="3" stroke-linecap="round" opacity="0.9"/>
    <line x1="352" y1="130" x2="364" y2="126" stroke="#C8A951" stroke-width="3" stroke-linecap="round" opacity="0.9"/>
    <line x1="268" y1="130" x2="256" y2="126" stroke="#C8A951" stroke-width="3" stroke-linecap="round" opacity="0.9"/>
    <path d="M268,100 Q310,60 352,100" fill="rgba(200,169,81,0.15)" stroke="#C8A951" stroke-width="2" opacity="0.7"/>
  </g>
  <text x="30" y="100" font-family="Georgia, serif" font-size="24" font-weight="bold" fill="white">Opening</text>
  <text x="30" y="128" font-family="Georgia, serif" font-size="24" font-weight="bold" fill="white">Procedures</text>
  <text x="30" y="162" font-family="Arial, sans-serif" font-size="13" font-style="italic" fill="#C8A951">Pre-Opening Checklist</text>
  <rect x="24" y="178" width="72" height="20" rx="3" fill="rgba(200,169,81,0.2)"/>
  <text x="60" y="192" font-family="Arial, sans-serif" font-size="9" fill="#C8A951" text-anchor="middle" letter-spacing="1">MODULE 008</text>
  <rect y="215" width="400" height="10" fill="#C8A951" opacity="0.6"/>
</svg>