<svg xmlns="http://www.w3.org/2000/svg" viewBox="0 0 400 225" width="400" height="225">
  <defs>
    <linearGradient id="bg_tm006" x1="0%" y1="0%" x2="100%" y2="100%">
      <stop offset="0%" style="stop-color:#7a2029;stop-opacity:1" />
      <stop offset="100%" style="stop-color:#3d0e14;stop-opacity:1" />
    </linearGradient>
  </defs>
  <rect width="400" height="225" fill="url(#bg_tm006)"/>
  <polygon points="230,0 400,0 400,225 290,225" fill="rgba(0,0,0,0.18)"/>
  <rect width="400" height="40" fill="rgba(0,0,0,0.35)"/>
  <rect x="0" y="0" width="5" height="225" fill="#C8A951"/>
  <text x="202" y="26" font-family="Georgia, serif" font-size="13" font-weight="bold" fill="#C8A951" text-anchor="middle" letter-spacing="3">COSTA COFFEE®</text>
  <g opacity="0.75">
    <path d="M310,88 C310,88 268,62 252,88 C236,114 268,142 310,172 C352,142 384,114 368,88 C352,62 310,88 310,88Z" fill="rgba(255,255,255,0.15)" stroke="rgba(255,255,255,0.6)" stroke-width="3"/>
    <path d="M310,105 C310,105 292,93 284,105 C276,117 292,131 310,145 C328,131 344,117 336,105 C328,93 310,105 310,105Z" fill="rgba(200,169,81,0.4)" stroke="#C8A951" stroke-width="2" opacity="0.9"/>
    <text x="310" y="125" font-family="Georgia, serif" font-size="14" font-weight="bold" fill="#C8A951" text-anchor="middle" opacity="0.9">HEART</text>
  </g>
  <text x="30" y="100" font-family="Georgia, serif" font-size="24" font-weight="bold" fill="white">Customer</text>
  <text x="30" y="128" font-family="Georgia, serif" font-size="24" font-weight="bold" fill="white">Service</text>
  <text x="30" y="162" font-family="Arial, sans-serif" font-size="13" font-style="italic" fill="#C8A951">HEART Model Excellence</text>
  <rect x="24" y="178" width="72" height="20" rx="3" fill="rgba(200,169,81,0.2)"/>
  <text x="60" y="192" font-family="Arial, sans-serif" font-size="9" fill="#C8A951" text-anchor="middle" letter-spacing="1">MODULE 006</text>
  <rect y="215" width="400" height="10" fill="#C8A951" opacity="0.6"/>
</svg>