<svg xmlns="http://www.w3.org/2000/svg" viewBox="0 0 400 225" width="400" height="225">
  <defs>
    <linearGradient id="bg_tm004" x1="0%" y1="0%" x2="100%" y2="100%">
      <stop offset="0%" style="stop-color:#7a2029;stop-opacity:1" />
      <stop offset="100%" style="stop-color:#3d0e14;stop-opacity:1" />
    </linearGradient>
  </defs>
  <rect width="400" height="225" fill="url(#bg_tm004)"/>
  <polygon points="230,0 400,0 400,225 290,225" fill="rgba(0,0,0,0.18)"/>
  <rect width="400" height="40" fill="rgba(0,0,0,0.35)"/>
  <rect x="0" y="0" width="5" height="225" fill="#C8A951"/>
  <text x="202" y="26" font-family="Georgia, serif" font-size="13" font-weight="bold" fill="#C8A951" text-anchor="middle" letter-spacing="3">COSTA COFFEE®</text>
  <g opacity="0.75">
    <path d="M310,58 L356,74 L356,124 Q356,164 310,182 Q264,164 264,124 L264,74 Z" fill="rgba(255,255,255,0.1)" stroke="rgba(255,255,255,0.55)" stroke-width="3"/>
    <path d="M310,62 L350,76 L350,124 Q350,158 310,174 Q270,158 270,124 L270,76 Z" fill="rgba(255,255,255,0.06)" stroke="rgba(255,255,255,0.25)" stroke-width="1.5"/>
    <polyline points="286,120 302,138 336,104" fill="none" stroke="#C8A951" stroke-width="5" stroke-linecap="round" stroke-linejoin="round" opacity="0.95"/>
  </g>
  <text x="30" y="100" font-family="Georgia, serif" font-size="24" font-weight="bold" fill="white">Food Safety</text>
  <text x="30" y="128" font-family="Georgia, serif" font-size="24" font-weight="bold" fill="white">Level 2</text>
  <text x="30" y="162" font-family="Arial, sans-serif" font-size="13" font-style="italic" fill="#C8A951">Safe &amp; Hygienic Store</text>
  <rect x="24" y="178" width="72" height="20" rx="3" fill="rgba(200,169,81,0.2)"/>
  <text x="60" y="192" font-family="Arial, sans-serif" font-size="9" fill="#C8A951" text-anchor="middle" letter-spacing="1">MODULE 004</text>
  <rect y="215" width="400" height="10" fill="#C8A951" opacity="0.6"/>
</svg>