<svg xmlns="http://www.w3.org/2000/svg" viewBox="0 0 400 225" width="400" height="225">
  <defs>
    <linearGradient id="bg_tm005" x1="0%" y1="0%" x2="100%" y2="100%">
      <stop offset="0%" style="stop-color:#7a2029;stop-opacity:1" />
      <stop offset="100%" style="stop-color:#3d0e14;stop-opacity:1" />
    </linearGradient>
  </defs>
  <rect width="400" height="225" fill="url(#bg_tm005)"/>
  <polygon points="230,0 400,0 400,225 290,225" fill="rgba(0,0,0,0.18)"/>
  <rect width="400" height="40" fill="rgba(0,0,0,0.35)"/>
  <rect x="0" y="0" width="5" height="225" fill="#C8A951"/>
  <text x="202" y="26" font-family="Georgia, serif" font-size="13" font-weight="bold" fill="#C8A951" text-anchor="middle" letter-spacing="3">COSTA COFFEE®</text>
  <g opacity="0.75">
    <polygon points="310,55 368,158 252,158" fill="rgba(255,255,255,0.08)" stroke="#C8A951" stroke-width="3" stroke-linejoin="round" opacity="0.9"/>
    <polygon points="310,65 358,152 262,152" fill="none" stroke="rgba(255,255,255,0.2)" stroke-width="1.5"/>
    <line x1="310" y1="85" x2="310" y2="128" stroke="rgba(255,255,255,0.85)" stroke-width="5" stroke-linecap="round"/>
    <circle cx="310" cy="141" r="4.5" fill="rgba(255,255,255,0.85)"/>
    <line x1="310" y1="162" x2="310" y2="182" stroke="rgba(255,255,255,0.5)" stroke-width="2.5" stroke-linecap="round"/>
    <line x1="310" y1="168" x2="302" y2="163" stroke="rgba(255,255,255,0.5)" stroke-width="2" stroke-linecap="round"/>
    <line x1="310" y1="168" x2="318" y2="163" stroke="rgba(255,255,255,0.5)" stroke-width="2" stroke-linecap="round"/>
    <line x1="310" y1="174" x2="302" y2="169" stroke="rgba(255,255,255,0.5)" stroke-width="2" stroke-linecap="round"/>
    <line x1="310" y1="174" x2="318" y2="169" stroke="rgba(255,255,255,0.5)" stroke-width="2" stroke-linecap="round"/>
  </g>
  <text x="30" y="100" font-family="Georgia, serif" font-size="24" font-weight="bold" fill="white">Allergen</text>
  <text x="30" y="128" font-family="Georgia, serif" font-size="24" font-weight="bold" fill="white">Awareness</text>
  <text x="30" y="162" font-family="Arial, sans-serif" font-size="13" font-style="italic" fill="#C8A951">14 Major Allergens</text>
  <rect x="24" y="178" width="72" height="20" rx="3" fill="rgba(200,169,81,0.2)"/>
  <text x="60" y="192" font-family="Arial, sans-serif" font-size="9" fill="#C8A951" text-anchor="middle" letter-spacing="1">MODULE 005</text>
  <rect y="215" width="400" height="10" fill="#C8A951" opacity="0.6"/>
</svg>