<svg xmlns="http://www.w3.org/2000/svg" viewBox="0 0 400 225" width="400" height="225">
  <defs>
    <linearGradient id="bg_tm003" x1="0%" y1="0%" x2="100%" y2="100%">
      <stop offset="0%" style="stop-color:#7a2029;stop-opacity:1" />
      <stop offset="100%" style="stop-color:#3d0e14;stop-opacity:1" />
    </linearGradient>
  </defs>
  <rect width="400" height="225" fill="url(#bg_tm003)"/>
  <polygon points="230,0 400,0 400,225 290,225" fill="rgba(0,0,0,0.18)"/>
  <rect width="400" height="40" fill="rgba(0,0,0,0.35)"/>
  <rect x="0" y="0" width="5" height="225" fill="#C8A951"/>
  <text x="202" y="26" font-family="Georgia, serif" font-size="13" font-weight="bold" fill="#C8A951" text-anchor="middle" letter-spacing="3">COSTA COFFEE®</text>
  <g opacity="0.75">
    <ellipse cx="310" cy="178" rx="56" ry="9" fill="rgba(255,255,255,0.12)" stroke="rgba(255,255,255,0.4)" stroke-width="2"/>
    <path d="M260,140 L266,178 L354,178 L360,140 Z" fill="rgba(255,255,255,0.1)" stroke="rgba(255,255,255,0.5)" stroke-width="2.5"/>
    <ellipse cx="310" cy="140" rx="50" ry="12" fill="rgba(255,255,255,0.22)" stroke="rgba(255,255,255,0.55)" stroke-width="2"/>
    <ellipse cx="310" cy="138" rx="42" ry="9" fill="rgba(200,160,100,0.25)"/>
    <path d="M310,128 C310,128 296,135 296,140 C296,145 310,148 310,148 C310,148 324,145 324,140 C324,135 310,128 310,128Z" fill="none" stroke="rgba(255,255,255,0.7)" stroke-width="1.8"/>
    <line x1="310" y1="128" x2="310" y2="148" stroke="rgba(255,255,255,0.7)" stroke-width="1.5"/>
    <path d="M304,132 C304,132 298,136 300,140" fill="none" stroke="rgba(255,255,255,0.5)" stroke-width="1.2"/>
    <path d="M316,132 C316,132 322,136 320,140" fill="none" stroke="rgba(255,255,255,0.5)" stroke-width="1.2"/>
    <path d="M303,138 C303,138 298,140 300,144" fill="none" stroke="rgba(255,255,255,0.5)" stroke-width="1.2"/>
    <path d="M317,138 C317,138 322,140 320,144" fill="none" stroke="rgba(255,255,255,0.5)" stroke-width="1.2"/>
    <path d="M360,148 Q375,148 375,162 Q375,175 360,175" fill="none" stroke="rgba(255,255,255,0.4)" stroke-width="2.5" stroke-linecap="round"/>
  </g>
  <text x="30" y="100" font-family="Georgia, serif" font-size="24" font-weight="bold" fill="white">Coffee Mastery</text>
  <text x="30" y="128" font-family="Georgia, serif" font-size="24" font-weight="bold" fill="white">Level 2</text>
  <text x="30" y="162" font-family="Arial, sans-serif" font-size="13" font-style="italic" fill="#C8A951">Advanced Latte Art</text>
  <rect x="24" y="178" width="72" height="20" rx="3" fill="rgba(200,169,81,0.2)"/>
  <text x="60" y="192" font-family="Arial, sans-serif" font-size="9" fill="#C8A951" text-anchor="middle" letter-spacing="1">MODULE 003</text>
  <rect y="215" width="400" height="10" fill="#C8A951" opacity="0.6"/>
</svg>