<svg xmlns="http://www.w3.org/2000/svg" viewBox="0 0 400 225" width="400" height="225">
  <defs>
    <linearGradient id="bg_tm010" x1="0%" y1="0%" x2="100%" y2="100%">
      <stop offset="0%" style="stop-color:#7a2029;stop-opacity:1" />
      <stop offset="100%" style="stop-color:#3d0e14;stop-opacity:1" />
    </linearGradient>
  </defs>
  <rect width="400" height="225" fill="url(#bg_tm010)"/>
  <polygon points="230,0 400,0 400,225 290,225" fill="rgba(0,0,0,0.18)"/>
  <rect width="400" height="40" fill="rgba(0,0,0,0.35)"/>
  <rect x="0" y="0" width="5" height="225" fill="#C8A951"/>
  <text x="202" y="26" font-family="Georgia, serif" font-size="13" font-weight="bold" fill="#C8A951" text-anchor="middle" letter-spacing="3">COSTA COFFEE®</text>
  <g opacity="0.75">
    <polygon points="310,55 322,94 364,94 331,118 343,157 310,134 277,157 289,118 258,94 300,94" fill="rgba(200,169,81,0.35)" stroke="#C8A951" stroke-width="2.5" stroke-linejoin="round" opacity="0.95"/>
    <polygon points="310,68 319,94 347,94 325,110 333,136 310,120 287,136 295,110 273,94 301,94" fill="rgba(200,169,81,0.2)" stroke="none"/>
    <ellipse cx="310" cy="170" rx="22" ry="14" fill="rgba(255,255,255,0.15)" stroke="rgba(255,255,255,0.5)" stroke-width="2"/>
    <text x="310" y="175" font-family="Georgia, serif" font-size="10" font-weight="bold" fill="#C8A951" text-anchor="middle" opacity="0.95">MAESTRO</text>
    <line x1="298" y1="157" x2="292" y2="170" stroke="rgba(255,255,255,0.5)" stroke-width="2.5" stroke-linecap="round"/>
    <line x1="322" y1="157" x2="328" y2="170" stroke="rgba(255,255,255,0.5)" stroke-width="2.5" stroke-linecap="round"/>
  </g>
  <text x="30" y="100" font-family="Georgia, serif" font-size="24" font-weight="bold" fill="white">Barista</text>
  <text x="30" y="128" font-family="Georgia, serif" font-size="24" font-weight="bold" fill="white">Maestro</text>
  <text x="30" y="162" font-family="Arial, sans-serif" font-size="13" font-style="italic" fill="#C8A951">Full Certification Programme</text>
  <rect x="24" y="178" width="72" height="20" rx="3" fill="rgba(200,169,81,0.2)"/>
  <text x="60" y="192" font-family="Arial, sans-serif" font-size="9" fill="#C8A951" text-anchor="middle" letter-spacing="1">MODULE 010</text>
  <rect y="215" width="400" height="10" fill="#C8A951" opacity="0.6"/>
</svg>