<svg xmlns="http://www.w3.org/2000/svg" viewBox="0 0 400 225" width="400" height="225">
  <defs>
    <linearGradient id="bg_tm012" x1="0%" y1="0%" x2="100%" y2="100%">
      <stop offset="0%" style="stop-color:#7a2029;stop-opacity:1" />
      <stop offset="100%" style="stop-color:#3d0e14;stop-opacity:1" />
    </linearGradient>
  </defs>
  <rect width="400" height="225" fill="url(#bg_tm012)"/>
  <polygon points="230,0 400,0 400,225 290,225" fill="rgba(0,0,0,0.18)"/>
  <rect width="400" height="40" fill="rgba(0,0,0,0.35)"/>
  <rect x="0" y="0" width="5" height="225" fill="#C8A951"/>
  <text x="202" y="26" font-family="Georgia, serif" font-size="13" font-weight="bold" fill="#C8A951" text-anchor="middle" letter-spacing="3">COSTA COFFEE®</text>
  <g opacity="0.75">
    <circle cx="310" cy="122" r="68" fill="rgba(255,255,255,0.06)" stroke="rgba(255,255,255,0.3)" stroke-width="1.5"/>
    <circle cx="310" cy="122" r="56" fill="rgba(255,255,255,0.08)" stroke="rgba(255,255,255,0.45)" stroke-width="2.5"/>
    <rect x="294" y="72" width="32" height="100" rx="6" fill="rgba(255,255,255,0.2)" stroke="rgba(255,255,255,0.65)" stroke-width="2.5"/>
    <rect x="260" y="106" width="100" height="32" rx="6" fill="rgba(255,255,255,0.2)" stroke="rgba(255,255,255,0.65)" stroke-width="2.5"/>
    <rect x="298" y="88" width="24" height="68" rx="4" fill="rgba(255,255,255,0.1)"/>
    <rect x="268" y="110" width="84" height="24" rx="4" fill="rgba(255,255,255,0.1)"/>
  </g>
  <text x="30" y="100" font-family="Georgia, serif" font-size="24" font-weight="bold" fill="white">First Aid</text>
  <text x="30" y="128" font-family="Georgia, serif" font-size="24" font-weight="bold" fill="white">Awareness</text>
  <text x="30" y="162" font-family="Arial, sans-serif" font-size="13" font-style="italic" fill="#C8A951">Emergency Procedures</text>
  <rect x="24" y="178" width="72" height="20" rx="3" fill="rgba(200,169,81,0.2)"/>
  <text x="60" y="192" font-family="Arial, sans-serif" font-size="9" fill="#C8A951" text-anchor="middle" letter-spacing="1">MODULE 012</text>
  <rect y="215" width="400" height="10" fill="#C8A951" opacity="0.6"/>
</svg>